<?xml version="1.0" standalone="no"?>
<!DOCTYPE svg PUBLIC "-//W3C//DTD SVG 20010904//EN"
 "http://www.w3.org/TR/2001/REC-SVG-20010904/DTD/svg10.dtd">
<svg version="1.0" xmlns="http://www.w3.org/2000/svg"
 width="300.000000pt" height="51.000000pt" viewBox="0 0 300.000000 51.000000"
 preserveAspectRatio="xMidYMid meet">
<metadata>
Created by potrace 1.10, written by Peter Selinger 2001-2011
</metadata>
<g transform="translate(0.000000,51.000000) scale(0.100000,-0.100000)"
fill="#000000" stroke="none">
<path d="M185 280 c0 -97 1 -100 23 -100 19 0 21 3 12 19 -5 11 -10 34 -10 51
0 27 3 31 23 28 15 -2 29 -18 46 -50 17 -35 29 -48 45 -48 12 0 16 4 10 8 -5
4 -22 28 -36 53 -24 44 -24 47 -6 58 10 6 18 20 18 30 0 33 -28 51 -78 51
l-47 0 0 -100z m83 78 c17 -17 15 -55 -4 -62 -41 -16 -54 -7 -54 34 0 35 3 40
23 40 13 0 28 -5 35 -12z"/>
<path d="M605 357 c-31 -26 -42 -89 -23 -127 7 -14 30 -33 51 -43 71 -35 137
12 137 98 0 81 -103 126 -165 72z m109 -12 c42 -45 42 -133 1 -149 -59 -22
-115 25 -115 99 0 34 5 47 22 59 33 23 66 20 92 -9z"/>
<path d="M1046 349 c-48 -56 -29 -136 39 -165 82 -34 160 51 125 137 -17 41
-47 59 -96 59 -35 0 -47 -5 -68 -31z m115 -8 c54 -54 33 -151 -33 -151 -31 0
-64 27 -78 66 -15 38 -12 59 11 88 27 35 63 34 100 -3z"/>
<path d="M1467 366 c4 -8 6 -53 3 -100 -4 -73 -3 -86 11 -86 13 0 14 10 7 77
-5 42 -6 78 -4 80 2 3 19 -21 37 -52 31 -50 35 -54 47 -38 19 25 53 93 47 93
-2 0 -14 -19 -26 -41 l-21 -42 -36 62 c-24 39 -43 61 -55 61 -13 0 -16 -4 -10
-14z"/>
<path d="M1630 373 c-1 -5 -2 -50 -3 -101 -2 -90 -1 -92 21 -92 19 0 21 3 12
19 -13 25 -13 122 0 155 8 23 7 26 -10 26 -11 0 -20 -3 -20 -7z"/>
<path d="M1925 280 c0 -99 0 -100 25 -100 19 0 21 3 12 12 -7 7 -12 29 -12 50
l0 38 56 0 56 0 -4 -50 c-2 -39 0 -50 12 -50 12 0 15 18 15 100 0 86 -2 100
-16 100 -14 0 -16 -8 -11 -45 l5 -45 -57 0 -56 0 0 33 c0 18 5 38 12 45 9 9 7
12 -12 12 -25 0 -25 -1 -25 -100z"/>
<path d="M2344 364 c3 -9 6 -44 6 -79 0 -78 19 -106 72 -108 61 -2 76 21 80
119 3 78 2 84 -16 84 -16 0 -17 -3 -8 -12 18 -18 15 -129 -4 -156 -21 -31 -69
-30 -90 3 -12 19 -15 42 -12 95 3 63 2 70 -15 70 -13 0 -17 -5 -13 -16z"/>
<path d="M2755 280 l0 -100 51 0 c37 0 56 5 72 20 30 28 28 65 -3 86 -22 14
-23 18 -10 31 35 35 5 63 -67 63 l-43 0 0 -100z m88 68 c13 -20 -6 -48 -34
-48 -15 0 -19 7 -19 36 0 31 3 35 21 32 12 -2 27 -10 32 -20z m15 -70 c7 -7
12 -24 12 -40 0 -29 -23 -48 -59 -48 -18 0 -21 6 -21 50 0 48 1 50 28 50 15 0
33 -5 40 -12z"/>
</g>
</svg>
